<svg viewBox="0 0 135.46666 135.46667" version="1.1" xmlns="http://www.w3.org/2000/svg" fill="currentColor">
    <g transform="matrix(0.39576471,0,0,0.39576471,29.754498,54.672401)">
        <path d="m 103.27181,414.57643 c -5.392353,-0.71715 -12.730245,-2.46884 -17.282004,-4.12552 -6.881655,-2.50467 -12.524376,-5.9655 -21.426925,-13.14168 -4.111104,-3.31389 -8.027196,-6.02653 -8.702427,-6.02809 -0.675231,-10e-4 -5.72657,0.99325 -11.225197,2.21071 -13.406984,2.96845 -21.392101,4.07088 -34.6663521,4.78604 -19.2906547,1.0393 -36.8682679,-0.70593 -48.1345739,-4.77912 -27.216035,-9.83962 -47.217303,-34.27346 -59.838516,-73.09958 -6.917175,-21.27902 -10.867835,-43.04626 -12.631435,-69.59622 -0.58006,-8.7325 -1.91353,-43.96154 -1.93076,-51.00896 -0.006,-2.65669 -0.64518,-3.26329 -5.45855,-5.18431 -0.70558,-0.28159 -14.4297,-0.6703 -30.49805,-0.86379 -32.38352,-0.38996 -31.26202,-0.23436 -33.99487,-4.71637 -2.25305,-3.69511 -1.5868,-6.61607 2.47928,-10.86963 l 2.29938,-2.4054 h 83.428563 83.428568 l 3.0356272,2.90883 c 2.5800184,2.47225 3.030399,3.2665 3.0007516,5.29188 -0.019179,1.31068 -0.53176,3.68196 -1.1390495,5.26953 -1.0616727,2.77539 -1.2269525,2.9027 -4.2948373,3.30816 -1.754864,0.23192 -17.623065,0.75027 -35.26266,1.15188 -31.066573,0.70731 -44.835303,1.35434 -45.624992,2.14403 -0.996214,0.99621 -1.62156,18.59443 -1.281071,36.05168 0.416198,21.33903 1.003853,29.2006 3.29548,44.0864 8.035862,52.19882 27.288139,86.74467 54.801296,98.33422 10.08947,4.25006 11.77502,4.47353 33.38935427,4.42681 20.99594773,-0.0454 29.31419073,-0.80125 40.73142873,-3.70127 l 5.772958,-1.46636 0.363793,-14.71391 c 0.426384,-17.24568 1.304708,-21.67117 6.357509,-32.0328 6.716625,-13.77359 17.532519,-24.00414 31.881483,-30.15611 15.781703,-6.76625 36.164668,-5.3843 53.265698,3.61136 1.93358,1.01712 4.17757,1.84932 4.98665,1.84932 1.72994,0 7.71042,-4.20069 19.24547,-13.51801 25.74775,-20.79748 58.99474,-40.12602 87.55654,-50.90204 12.19473,-4.60093 16.42518,-6.67808 17.23907,-8.46437 1.03885,-2.28003 1.33746,-5.01637 1.95848,-17.9465 0.39139,-8.14898 0.8453,-12.16912 1.5217,-13.47713 1.15083,-2.22547 5.34931,-4.73767 7.91215,-4.73433 1.91742,0.003 5.30345,1.75664 7.77031,4.0254 l 1.44324,1.32735 -0.0532,58.41957 c -0.0293,32.13076 -0.25407,69.99085 -0.49953,84.13353 -0.39661,22.85112 -0.57021,25.90308 -1.5593,27.41262 -2.46334,3.75953 -7.07774,4.89219 -11.21484,2.7528 -2.4259,-1.25448 -3.88861,-3.3033 -4.73647,-6.63439 -0.35009,-1.37543 -0.80684,-25.28724 -1.05824,-55.40101 -0.37762,-45.23281 -0.5803,-53.14733 -1.38591,-54.11754 -2.3676,-2.85135 -13.31095,0.54185 -33.0527,10.24864 -18.18848,8.94307 -37.14918,20.24778 -48.7272,29.05205 -9.79343,7.44722 -23.35316,19.5053 -24.38894,21.68805 -1.38987,2.92895 -0.98537,5.17012 2.34822,13.01024 3.71526,8.73777 4.58881,13.55202 4.14377,22.83665 -0.5184,10.81497 -1.4889,17.13405 -3.56561,23.21622 -5.27497,15.44906 -19.47228,29.25911 -36.44909,35.45488 -7.13044,2.60229 -19.09621,4.67104 -23.57344,4.07559 z m 11.00841,-20.39744 c 12.1142,-2.2841 23.96505,-11.04223 29.52945,-21.82317 3.48602,-6.7541 4.74196,-11.85082 4.74196,-19.2432 0,-12.53885 -4.28845,-22.01977 -14.18139,-31.35226 -8.31276,-7.84184 -16.57828,-10.5122 -30.46146,-9.84124 -7.845252,0.37916 -12.414965,1.66463 -18.147885,5.10503 -8.116202,4.87065 -16.391334,14.66572 -18.99191,22.48029 -1.405312,4.22288 -1.44469,22.53374 -0.0585,27.20157 2.336317,7.86722 12.081231,18.9713 20.52898,23.39223 8.994,4.7068 17.173535,5.94119 27.040745,4.08075 z"
            id="path4003" transform="scale(0.26458333)" />
        <path d="m 542.65809,25.686522 c -9.99145,-1.595896 -16.91916,-5.003699 -23.45143,-11.535968 -7.94775,-7.9477552 -11.47888,-16.8423825 -11.49756,-28.961423 -0.0186,-12.054407 3.51404,-20.875893 11.53596,-28.807039 8.28986,-8.196065 14.82507,-11.094499 26.88855,-11.925357 12.81067,-0.882319 22.15957,2.587472 31.2146,11.585118 7.958,7.907571 11.54632,15.53329 12.25883,26.051816 0.81374,12.013018 -4.89687,26.1527262 -13.68733,33.890402 -3.54818,3.123228 -11.83128,7.34564 -16.94758,8.639232 -4.74995,1.200968 -12.35046,1.696307 -16.31404,1.063219 z M 556.57912,5.9066415 c 6.98268,-2.5366463 11.39662,-7.5173674 13.10892,-14.79222 2.02612,-8.6080975 0.63285,-14.8794445 -4.54918,-20.4766525 -4.97562,-5.374261 -8.98993,-7.380698 -15.41699,-7.705728 -4.09647,-0.207167 -5.85541,0.01057 -8.66738,1.072913 -4.78185,1.806553 -9.54539,6.129146 -12.21686,11.085978 -2.02461,3.756597 -2.19034,4.497527 -2.20245,9.846551 -0.0118,5.2238308 0.18543,6.1871567 2.0358,9.9423173 2.38796,4.84615159 5.6418,8.2190532 10.13847,10.509443 2.73953,1.3953856 4.04901,1.6321109 8.98016,1.6234181 3.81695,-0.00673 6.79503,-0.3814726 8.78951,-1.1060199 z"
            id="path5082" transform="scale(0.26458333)" />
        <path d="m 143.59548,48.831168 c -2.64357,-0.422247 -4.47653,-1.323895 -6.20486,-3.052225 -2.10284,-2.102844 -3.03712,-4.456214 -3.04206,-7.66271 -0.005,-3.189395 0.92976,-5.523413 3.05222,-7.621862 2.19336,-2.168542 3.92247,-2.93542 7.11426,-3.155251 3.38949,-0.233447 5.86306,0.684602 8.25887,3.065229 2.10555,2.092212 3.05496,4.10985 3.24348,6.892876 0.2153,3.178445 -1.29563,6.919576 -3.62144,8.966836 -0.93879,0.826354 -3.13036,1.943534 -4.48405,2.285797 -1.25675,0.317756 -3.26772,0.448815 -4.31642,0.28131 z m 3.68327,-5.233427 c 1.8475,-0.671154 3.01536,-1.98897 3.4684,-3.913775 0.53608,-2.277559 0.16745,-3.936853 -1.20363,-5.417781 -1.31647,-1.42194 -2.37859,-1.952809 -4.07908,-2.038807 -1.08386,-0.05481 -1.54925,0.0028 -2.29325,0.283875 -1.26519,0.477984 -2.52555,1.62167 -3.23237,2.933165 -0.53568,0.993933 -0.57953,1.189971 -0.58273,2.605233 -0.003,1.382139 0.0491,1.637019 0.53863,2.630572 0.63182,1.282211 1.49273,2.174624 2.68247,2.780623 0.72484,0.369196 1.0713,0.431829 2.376,0.429529 1.00991,-0.0018 1.79786,-0.100931 2.32556,-0.292634 z"
            id="path5082-3" />
        <path d="m 760.42691,108.37841 c -24.0404,-0.50762 -27.30931,-0.98668 -28.78159,-4.21798 -1.67834,-3.68355 -0.22358,-9.430118 2.90644,-11.480987 1.06973,-0.700918 4.06642,-1.237229 9.08525,-1.625972 4.11896,-0.319041 60.77722,-0.586911 125.90725,-0.595266 l 118.41823,-0.01519 2.93145,3.133956 c 3.4628,3.702012 4.29171,6.609749 2.73976,9.610879 -1.55698,3.01086 -3.65537,4.02689 -9.5061,4.60277 -6.60071,0.6497 -197.06688,1.15016 -223.70069,0.58779 z"
            id="path5084" transform="scale(0.26458333)" />
        <path d="m -250.07149,107.29194 c -13.23053,-0.29618 -13.32643,-0.31349 -16.10161,-2.90589 -3.96568,-3.7045 -3.74779,-7.080018 0.64834,-10.044229 l 3.36335,-2.267832 112.32887,-0.237308 c 61.780887,-0.130519 118.633255,0.09408 126.338605,0.499105 12.099502,0.636003 14.2465225,0.977578 15.7464486,2.50514 3.1606324,3.218863 3.2184621,6.214234 0.1855268,9.609044 l -2.7206734,3.04528 -113.239517,0.0473 c -62.28175,0.026 -119.22895,-0.0868 -126.54934,-0.25063 z"
            id="path5086" transform="scale(0.26458333)" />
        <path d="m 168.27315,184.065 c -11.67842,-2.26391 -26.4199,-13.61572 -32.42035,-24.96559 -4.10135,-7.75771 -5.56053,-14.31276 -6.42158,-28.84755 -1.04073,-17.56793 0.94147,-16.21476 -27.20028,-18.5685 -8.872911,-0.74211 -11.171625,-1.29359 -17.071956,-4.09564 C 63.233228,97.175223 52.386544,71.242698 60.349863,48.27344 64.486582,36.341567 76.743637,23.330583 87.699505,19.241529 c 3.120677,-1.164729 10.281564,-2.320893 20.249305,-3.26936 8.4817,-0.807063 16.30516,-1.707959 17.38548,-2.00199 2.54966,-0.693943 2.88808,-2.249531 4.40431,-20.2450177 1.22683,-14.5607643 1.38083,-15.2653903 4.87304,-22.2964253 5.81619,-11.710052 17.12145,-21.730213 28.58549,-25.336095 4.09367,-1.287616 7.4778,-1.540537 17.10904,-1.278684 11.99568,0.326138 12.01185,0.329525 18.8095,3.94035 17.21511,9.144448 26.67756,25.523926 27.77057,48.0707279 0.61596,12.706273 1.04481,14.7863931 3.36148,16.3043271 1.28186,0.839908 7.50097,1.825166 17.03385,2.698575 18.72038,1.715175 23.48193,3.247437 33.25682,10.702007 5.14397,3.922924 11.41377,12.634076 14.85617,20.640966 1.91111,4.445142 2.13511,6.275265 2.05409,16.781959 -0.0744,9.650588 -0.4459,12.768104 -2.04502,17.162292 -4.2574,11.698821 -11.72627,19.815919 -23.78877,25.853379 -7.85582,3.93197 -9.33789,4.23307 -26.85031,5.45505 -6.57474,0.45878 -12.76724,1.26933 -13.76113,1.80125 -2.59842,1.39063 -3.53595,5.42935 -4.12341,17.763 -0.88167,18.51071 -4.52521,27.70003 -15.26779,38.50668 -7.59332,7.6386 -14.67441,11.41003 -24.81612,13.2172 -8.03558,1.43188 -12.51796,1.51737 -18.52295,0.35328 z m 21.61923,-19.11596 c 5.51264,-2.66422 14.17079,-10.95477 16.52995,-15.82813 1.73654,-3.5872 2.09697,-6.51323 2.87231,-23.31737 1.36331,-29.547796 0.43955,-28.604042 29.46931,-30.107352 23.2347,-1.203221 23.30408,-1.222307 31.43012,-8.649049 5.51875,-5.043831 10.0206,-13.063666 11.0312,-19.651565 1.29093,-8.415399 -2.35848,-17.060675 -10.85391,-25.712409 -7.43908,-7.575941 -9.54748,-8.171308 -33.76999,-9.535952 -13.30285,-0.749453 -21.78194,-1.600949 -22.58586,-2.26814 -2.3818,-1.976717 -3.9346,-9.913434 -4.47742,-22.8850693 -0.97153,-23.2164047 -2.82149,-29.3368787 -11.25041,-37.2211507 -9.16374,-8.571606 -18.24658,-10.67418 -30.1837,-6.987181 -9.86261,3.04625 -17.41641,11.37693 -20.19938,22.27681 -0.80895,3.168336 -1.67496,12.5637218 -2.0886,22.659172 -0.70438,17.191404 -0.71502,17.257049 -3.32709,20.530656 l -2.62045,3.284107 -21.40262,0.666307 -21.40262,0.666307 -6.586568,4.549657 c -3.622613,2.502308 -7.808308,6.210957 -9.301546,8.241447 -11.45702,15.579128 -6.918586,35.470466 10.478535,45.925989 l 5.225805,3.140657 20.058654,1.020207 c 12.7208,0.646985 20.88467,1.448836 22.31664,2.191914 5.87988,3.051188 5.92432,3.232428 7.15215,29.164898 0.71338,15.06702 0.90187,16.2469 3.2991,20.6514 9.19,16.88507 25.97011,24.06447 40.18639,17.19384 z"
            id="path5502" transform="scale(0.26458333)" />
        <path d="m 609.56079,412.74078 c -12.35988,-1.69294 -22.81848,-7.07159 -32.65346,-16.79303 -7.43105,-7.34526 -12.26129,-15.06446 -15.54212,-24.83788 -2.13289,-6.35378 -2.28125,-7.83243 -1.92004,-19.13721 0.33473,-10.47635 0.75086,-13.23712 2.87215,-19.05489 5.57988,-15.30315 5.54684,-15.69855 -1.91934,-22.96517 -18.75717,-18.25582 -54.73364,-40.97052 -83.55283,-52.75328 -12.81678,-5.24016 -15.55192,-5.7257 -17.8644,-3.17126 -1.72791,1.90871 -1.79548,3.76156 -2.08542,57.18314 l -0.29965,55.2105 -3.13367,2.7514 c -4.18313,3.67283 -7.59867,3.64672 -10.73627,-0.0821 l -2.38422,-2.83348 0.27379,-82.66379 c 0.29504,-89.08256 0.23238,-87.95166 4.93874,-89.13288 3.66023,-0.91866 7.86634,0.78896 9.31119,3.78022 0.83232,1.72313 1.51197,7.41304 1.89233,15.84229 0.32644,7.23439 0.91626,13.8887 1.3107,14.78736 0.82873,1.88812 9.71482,6.5005 19.5372,10.1409 3.74192,1.38685 13.38867,5.68196 21.43721,9.54469 25.12558,12.05851 42.0997,22.79286 65.18552,41.22297 7.86111,6.27576 15.35908,11.67806 16.66217,12.00511 1.52843,0.38362 4.30555,-0.14569 7.82545,-1.49151 12.27286,-4.69246 15.78498,-5.69498 23.25712,-6.63865 18.25931,-2.30599 37.38117,4.62716 49.85074,18.07472 12.78362,13.78625 16.45873,24.39704 16.17632,46.70432 -0.11019,8.70312 0.17804,12.96766 0.93834,13.88379 1.48425,1.78839 7.82924,3.7539 18.19329,5.63578 12.61505,2.2906 44.04409,2.30943 53.75087,0.0322 10.77511,-2.52786 18.92901,-7.06794 27.53854,-15.33344 15.1797,-14.57312 25.52279,-33.69814 32.17283,-59.48957 5.98258,-23.20277 8.35839,-45.82858 8.46885,-80.65212 0.0709,-22.36394 -0.0709,-24.83335 -1.5097,-26.27495 -2.11511,-2.11933 -15.05546,-2.84519 -52.44349,-2.94172 l -28.63176,-0.0739 -2.37285,-2.49462 c -3.79963,-3.99462 -4.07966,-6.95311 -0.954,-10.07878 2.61874,-2.61873 2.75655,-2.64593 16.64778,-3.2847 7.70396,-0.35425 45.03114,-0.50294 82.9493,-0.33041 75.3455,0.34282 73.34225,0.19458 75.23157,5.56682 1.24007,3.52612 -1.46227,8.44437 -5.28321,9.61541 -1.55129,0.47544 -15.67914,1.07385 -31.39522,1.3298 -15.71607,0.25595 -29.46747,0.73697 -30.55867,1.06893 -3.11552,0.9478 -3.91171,5.06717 -3.92115,20.28732 -0.0469,75.70478 -15.14868,129.29635 -44.8943,159.31643 -12.28654,12.39991 -27.01512,19.91803 -43.38124,22.14371 -8.96599,1.2193 -35.69907,1.23802 -46.42492,0.0325 -7.92461,-0.89067 -21.20501,-3.48532 -27.66755,-5.40551 -4.85762,-1.44332 -7.20222,-0.47165 -15.48783,6.41863 -15.01382,12.48542 -31.91439,17.7316 -49.40469,15.33595 z m 17.77847,-18.51806 c 8.5572,-1.52666 13.40655,-3.9681 19.71433,-9.92533 10.19877,-9.63198 13.96504,-17.94343 14.03344,-30.96913 0.0295,-5.61161 -0.46072,-9.57789 -1.56781,-12.68577 -3.79463,-10.65247 -13.12426,-21.1866 -23.14938,-26.13806 -5.70878,-2.81959 -6.22603,-2.90428 -17.73767,-2.90428 h -11.85741 l -7.03937,3.4798 c -21.52784,10.64194 -30.288,35.99183 -19.63746,56.82624 5.5591,10.87462 16.85167,19.8435 28.13467,22.34539 6.57154,1.45717 10.81307,1.45076 19.10666,-0.0288 z"
            id="path5504" transform="scale(0.26458333)" />
        <path d="m -174.74692,21.846491 c -5.01451,-0.702729 -6.81871,-2.021047 -7.59346,-5.548479 -0.93942,-4.277113 1.20794,-7.541059 5.45472,-8.2911037 1.9928,-0.3519495 25.4625,-1.0852848 52.15489,-1.6296189 26.692383,-0.5443342 49.959099,-1.2999215 51.703805,-1.6790667 3.560778,-0.7738116 3.253813,-0.2430753 18.981992,-32.8193427 19.132349,-39.627002 43.436226,-75.30775 67.65916,-99.33105 32.47309,-32.20547 67.443825,-50.81096 105.673793,-56.22164 11.05593,-1.56475 36.88033,-1.80807 48.10183,-0.45322 17.96687,2.16927 37.75088,7.20411 55.59758,14.14905 4.58233,1.78319 19.55727,8.68399 33.27765,15.33512 23.86161,11.56721 35.52695,16.68051 41.13059,18.02887 3.17272,0.76343 5.03351,-0.81898 34.94554,-29.71752 20.46732,-19.77385 26.07189,-24.1664 30.83453,-24.1664 5.2768,0 10.54739,4.36774 40.49844,33.56098 19.8466,19.34445 21.91575,21.07926 24.30006,20.37348 6.25551,-1.85171 21.12564,-8.36818 42.37421,-18.56949 34.71811,-16.66795 48.72693,-21.74384 73.63099,-26.67913 32.25705,-6.39246 59.97021,-4.86346 90.10649,4.97137 30.89003,10.08082 62.0279,30.9346 85.93496,57.55272 9.39201,10.45708 26.45799,32.938444 35.48233,46.741569 8.32086,12.727138 21.59503,37.125176 26.88479,49.414522 6.83234,15.8732656 12.51208,26.5859698 14.74563,27.8122049 1.53314,0.8417286 15.1063,1.2515803 53.79806,1.6244663 47.39125,0.4567324 51.95286,0.6333239 54.18676,2.0976723 2.99499,1.9632895 3.93651,5.2878315 2.48791,8.7851015 -2.47611,5.97786 4.25445,5.571583 -87.65988,5.291342 -45.84496,-0.13978 -84.08397,-0.609765 -84.97559,-1.044418 -1.78542,-0.87043 -4.27531,-5.130327 -4.27531,-7.314557 0,-0.765294 1.19043,-2.724565 2.64547,-4.3539298 l 2.64556,-2.9624965 16.17744,-0.4761541 c 17.65934,-0.5197599 20.25964,-1.1762973 20.25964,-5.1151409 0,-4.718361 -11.08526,-28.3238547 -23.21852,-49.4426347 -13.60699,-23.683951 -30.29901,-46.523317 -46.22182,-63.244437 -26.73372,-28.07405 -60.01455,-47.38205 -94.29715,-54.70685 -7.25856,-1.55086 -12.33432,-1.95069 -25.39972,-2.00078 -18.72033,-0.0718 -28.4353,1.23588 -49.89231,6.71556 -19.57892,5.00005 -25.88217,7.53518 -62.82374,25.26733 -12.34571,5.92601 -26.52885,12.33346 -31.51808,14.23878 l -9.07133,3.46423 -27.21399,26.541872 c -14.96769,14.598027 -29.11506,28.018006 -31.43859,29.822175 -5.31891,4.130004 -9.7842,4.443028 -15.47096,1.084541 -5.28694,-3.122369 -22.39004,-19.207477 -43.35837,-40.777658 -9.5788,-9.85373 -18.04821,-17.91587 -18.82093,-17.91587 -2.77955,0 -22.44738,-8.4529 -40.92229,-17.58771 -38.83758,-19.20303 -61.51635,-26.73271 -91.71598,-30.45103 -38.95809,-4.79671 -81.629376,8.54267 -116.897387,36.54304 -32.569954,25.8583 -64.921179,70.959919 -88.105328,122.8297691 -5.824201,13.0304832 -4.650716,13.991781 17.957957,14.7108743 l 15.723234,0.5000933 2.6462067,2.9624965 c 3.3657079,3.7679848 3.3317086,5.7185208 -0.1691622,9.7057958 l -2.8153685,3.206533 -79.960508,-0.121202 c -43.978284,-0.06667 -81.853184,-0.386447 -84.166444,-0.710629 z m 559.23454,-120.95076 c 11.08252,-11.101041 20.70563,-21.285791 21.38467,-22.632781 2.09853,-4.16272 -0.20855,-7.39589 -18.05005,-25.29563 -19.7658,-19.83031 -22.59564,-22.1449 -26.02286,-21.28472 -3.09185,0.776 -43.8493,41.17964 -43.8493,43.46864 0,1.87251 43.36789,45.958769 45.19173,45.940299 0.65768,-0.0063 10.26329,-9.094769 21.34581,-20.195808 z"
            id="path5506" transform="scale(0.26458333)" />
        <path d="m 459.12496,103.36317 c -5.9626,-1.48514 -15.89296,-7.269939 -19.43288,-11.320369 -5.34505,-6.115902 -9.16769,-13.215438 -10.26024,-19.055626 -1.31243,-7.015607 -0.3517,-18.647089 1.97457,-23.906008 2.77128,-6.264943 8.47417,-13.066625 14.49946,-17.293131 16.78683,-11.775287 36.09895,-10.403858 51.0999,3.628801 9.58885,8.969894 12.95887,18.082848 12.17936,32.934472 -0.31984,6.0938 -0.92932,8.662735 -3.06284,12.909869 -3.88896,7.741643 -11.23614,14.805864 -19.7764,19.014752 -6.51135,3.20899 -7.85808,3.53552 -15.42126,3.73912 -4.55777,0.12269 -9.86762,-0.17065 -11.79967,-0.65188 z M 479.1309,85.190744 c 10.9115,-5.282162 15.94211,-20.085245 10.62998,-31.279739 -3.36796,-7.097442 -12.58836,-13.06417 -20.21436,-13.081163 -6.74314,-0.01503 -11.07173,1.827066 -16.14688,6.871546 -11.9479,11.875679 -8.81435,29.854044 6.53814,37.511849 5.03526,2.511579 13.98009,2.501095 19.19312,-0.0225 z"
            id="path5922" transform="scale(0.26458333)" />
        <path
            d="m 617.50579,103.41327 c -9.61304,-2.03436 -21.1534,-11.183222 -25.54944,-20.25486 -5.36753,-11.076401 -5.93824,-25.884945 -1.36975,-35.541941 1.33528,-2.822535 4.87375,-7.746643 7.86329,-10.942462 14.68595,-15.69933 37.08942,-17.181696 54.39499,-3.599143 11.33727,8.898228 16.65194,22.826927 14.30811,37.498713 -2.11414,13.233951 -9.89313,23.679762 -22.14281,29.733883 -6.11117,3.0203 -7.63136,3.38432 -15.20704,3.64136 -4.62941,0.15708 -10.16322,-0.0839 -12.29735,-0.53555 z m 19.3015,-17.653238 c 6.82714,-2.814103 12.36034,-10.456272 13.61148,-18.799479 1.34462,-8.966567 -4.10546,-19.176446 -12.64247,-23.683707 -5.14402,-2.715876 -14.93723,-2.722903 -20.0188,-0.01437 -13.1388,7.003144 -16.79144,21.262732 -8.7105,34.005057 5.67606,8.950222 17.71485,12.633158 27.76029,8.492495 z"
            id="path5924" transform="scale(0.26458333)" />
        <path d="m 359.38816,437.62695 c -1.88792,-1.28287 -3.84365,-3.41369 -4.34607,-4.73516 -1.39665,-3.67348 -1.13678,-279.45627 0.26492,-281.14522 1.56922,-1.8908 5.79576,-3.88681 8.18145,-3.86374 1.14735,0.0111 3.08353,0.78678 4.30261,1.72374 2.12873,1.6361 2.24268,2.273 2.87719,16.08144 0.36337,7.90783 0.69262,71.34234 0.73167,140.96559 l 0.071,126.58772 -3.44,3.35907 c -1.89199,1.84748 -3.83828,3.35906 -4.32508,3.35906 -0.4868,0 -2.42976,-1.04962 -4.31768,-2.3325 z"
            id="path5926" transform="scale(0.26458333)" />
    </g>
</svg>